{
  "accessors": [
    {
      "bufferView": 2,
      "componentType": 5126,
      "count": 9926,
      "max": [
        11.429926872253418,
        5.822833061218262,
        38.10942840576172
      ],
      "min": [
        -11.03076171875,
        -17.718984603881836,
        0.0064409999176859856
      ],
      "type": "VEC3"
    },
    {
      "bufferView": 2,
      "byteOffset": 119112,
      "componentType": 5126,
      "count": 9926,
      "max": [
        1.0,
        1.0,
        1.0
      ],
      "min": [
        -1.0,
        -1.0,
        -1.0
      ],
      "type": "VEC3"
    },
    {
      "bufferView": 3,
      "componentType": 5126,
      "count": 9926,
      "max": [
        1.0,
        0.9999905228614807,
        0.9999881386756897,
        1.0
      ],
      "min": [
        -1.0,
        -0.9999903440475464,
        -0.9999708533287048,
        -1.0
      ],
      "type": "VEC4"
    },
    {
      "bufferView": 1,
      "componentType": 5126,
      "count": 9926,
      "max": [
        0.9958959817886353,
        0.9907770156860352
      ],
      "min": [
        0.0039059999398887157,
        0.0039059999398887157
      ],
      "type": "VEC2"
    },
    {
      "bufferView": 0,
      "componentType": 5125,
      "count": 41952,
      "type": "SCALAR"
    },
    {
      "bufferView": 2,
      "byteOffset": 238224,
      "componentType": 5126,
      "count": 2873,
      "max": [
        11.020332336425781,
        5.243072032928467,
        32.77201843261719
      ],
      "min": [
        -9.461432456970215,
        -17.718984603881836,
        1.9504480361938477
      ],
      "type": "VEC3"
    },
    {
      "bufferView": 2,
      "byteOffset": 272700,
      "componentType": 5126,
      "count": 2873,
      "max": [
        1.0,
        1.0,
        1.0
      ],
      "min": [
        -1.0,
        -1.0,
        -0.9998170137405396
      ],
      "type": "VEC3"
    },
    {
      "bufferView": 3,
      "byteOffset": 158816,
      "componentType": 5126,
      "count": 2873,
      "max": [
        0.9999831914901733,
        1.0,
        0.9998663067817688,
        1.0
      ],
      "min": [
        -1.0,
        -1.0,
        -0.9999508857727051,
        1.0
      ],
      "type": "VEC4"
    },
    {
      "bufferView": 1,
      "byteOffset": 79408,
      "componentType": 5126,
      "count": 2873,
      "max": [
        0.9929760098457336,
        0.9960939884185791
      ],
      "min": [
        0.0039059999398887157,
        0.0039090001955628395
      ],
      "type": "VEC2"
    },
    {
      "bufferView": 0,
      "byteOffset": 167808,
      "componentType": 5125,
      "count": 11820,
      "type": "SCALAR"
    }
  ],
  "asset": {
    "extras": {
      "author": "galax_evan (https://sketchfab.com/galax_evan)",
      "license": "CC-BY-4.0 (http://creativecommons.org/licenses/by/4.0/)",
      "source": "https://sketchfab.com/3d-models/chef-robot-87c5c03926a441c4b2ac1b55dd5d6dea",
      "title": "Chef Robot"
    },
    "generator": "Sketchfab-15.53.0",
    "version": "2.0"
  },
  "bufferViews": [
    {
      "buffer": 0,
      "byteLength": 215088,
      "name": "floatBufferViews",
      "target": 34963
    },
    {
      "buffer": 0,
      "byteLength": 102392,
      "byteOffset": 215088,
      "byteStride": 8,
      "name": "floatBufferViews",
      "target": 34962
    },
    {
      "buffer": 0,
      "byteLength": 307176,
      "byteOffset": 317480,
      "byteStride": 12,
      "name": "floatBufferViews",
      "target": 34962
    },
    {
      "buffer": 0,
      "byteLength": 204784,
      "byteOffset": 624656,
      "byteStride": 16,
      "name": "floatBufferViews",
      "target": 34962
    }
  ],
  "buffers": [
    {
      "byteLength": 829440,
      "uri": "scene.bin"
    }
  ],
  "extensionsUsed": [
    "KHR_materials_emissive_strength"
  ],
  "images": [
    {
      "uri": "textures/initialShadingGroup_baseColor.png"
    },
    {
      "uri": "textures/initialShadingGroup_metallicRoughness.png"
    },
    {
      "uri": "textures/initialShadingGroup_emissive.png"
    },
    {
      "uri": "textures/initialShadingGroup_normal.png"
    }
  ],
  "materials": [
    {
      "doubleSided": true,
      "emissiveFactor": [
        1.0,
        1.0,
        1.0
      ],
      "emissiveTexture": {
        "index": 2
      },
      "extensions": {
        "KHR_materials_emissive_strength": {
          "emissiveStrength": 2.0
        }
      },
      "name": "initialShadingGroup",
      "normalTexture": {
        "index": 3
      },
      "pbrMetallicRoughness": {
        "baseColorTexture": {
          "index": 0
        },
        "metallicRoughnessTexture": {
          "index": 1
        }
      }
    }
  ],
  "meshes": [
    {
      "name": "Object_0",
      "primitives": [
        {
          "attributes": {
            "NORMAL": 1,
            "POSITION": 0,
            "TANGENT": 2,
            "TEXCOORD_0": 3
          },
          "indices": 4,
          "material": 0,
          "mode": 4
        }
      ]
    },
    {
      "name": "Object_1",
      "primitives": [
        {
          "attributes": {
            "NORMAL": 6,
            "POSITION": 5,
            "TANGENT": 7,
            "TEXCOORD_0": 8
          },
          "indices": 9,
          "material": 0,
          "mode": 4
        }
      ]
    }
  ],
  "nodes": [
    {
      "children": [
        1
      ],
      "matrix": [
        1.0,
        0.0,
        0.0,
        0.0,
        0.0,
        2.220446049250313e-16,
        -1.0,
        0.0,
        0.0,
        1.0,
        2.220446049250313e-16,
        0.0,
        0.0,
        0.0,
        0.0,
        1.0
      ],
      "name": "Sketchfab_model"
    },
    {
      "children": [
        2,
        3
      ],
      "name": "Robotchef_low.obj.cleaner.materialmerger.gles"
    },
    {
      "mesh": 0,
      "name": "Object_2"
    },
    {
      "mesh": 1,
      "name": "Object_3"
    }
  ],
  "samplers": [
    {
      "magFilter": 9729,
      "minFilter": 9987,
      "wrapS": 10497,
      "wrapT": 10497
    }
  ],
  "scene": 0,
  "scenes": [
    {
      "name": "Sketchfab_Scene",
      "nodes": [
        0
      ]
    }
  ],
  "textures": [
    {
      "sampler": 0,
      "source": 0
    },
    {
      "sampler": 0,
      "source": 1
    },
    {
      "sampler": 0,
      "source": 2
    },
    {
      "sampler": 0,
      "source": 3
    }
  ]
}
