{
  "accessors": [
    {
      "bufferView": 2,
      "componentType": 5126,
      "count": 722,
      "max": [
        1.158139944076538,
        1.158139944076538,
        2.2149100303649902
      ],
      "min": [
        -1.158139944076538,
        -1.158139944076538,
        -1.011929988861084
      ],
      "type": "VEC3"
    },
    {
      "bufferView": 2,
      "byteOffset": 8664,
      "componentType": 5126,
      "count": 722,
      "max": [
        0.9968667030334473,
        0.9968667030334473,
        0.9998498558998108
      ],
      "min": [
        -0.9968667030334473,
        -0.9968667030334473,
        -0.9744982123374939
      ],
      "type": "VEC3"
    },
    {
      "bufferView": 1,
      "componentType": 5126,
      "count": 722,
      "max": [
        1.0,
        1.0
      ],
      "min": [
        0.0,
        0.0
      ],
      "type": "VEC2"
    },
    {
      "bufferView": 1,
      "byteOffset": 5776,
      "componentType": 5126,
      "count": 722,
      "max": [
        1.0,
        1.0
      ],
      "min": [
        0.0,
        0.0
      ],
      "type": "VEC2"
    },
    {
      "bufferView": 0,
      "componentType": 5125,
      "count": 3072,
      "type": "SCALAR"
    },
    {
      "bufferView": 2,
      "byteOffset": 17328,
      "componentType": 5126,
      "count": 140,
      "max": [
        1.0,
        1.0,
        0.3499999940395355
      ],
      "min": [
        -1.0,
        -1.0,
        -0.800000011920929
      ],
      "type": "VEC3"
    },
    {
      "bufferView": 2,
      "byteOffset": 19008,
      "componentType": 5126,
      "count": 140,
      "max": [
        0.9997789263725281,
        0.9997789263725281,
        1.0
      ],
      "min": [
        -0.9997789263725281,
        -0.9997789263725281,
        -1.0
      ],
      "type": "VEC3"
    },
    {
      "bufferView": 3,
      "componentType": 5126,
      "count": 140,
      "max": [
        0.9998354911804199,
        0.9994056224822998,
        0.9997608661651611,
        1.0
      ],
      "min": [
        -0.9643869996070862,
        -0.9994028806686401,
        -0.9995117783546448,
        1.0
      ],
      "type": "VEC4"
    },
    {
      "bufferView": 1,
      "byteOffset": 11552,
      "componentType": 5126,
      "count": 140,
      "max": [
        1.0,
        1.0
      ],
      "min": [
        0.0,
        0.0
      ],
      "type": "VEC2"
    },
    {
      "bufferView": 1,
      "byteOffset": 12672,
      "componentType": 5126,
      "count": 140,
      "max": [
        1.0,
        1.0
      ],
      "min": [
        0.0,
        0.0
      ],
      "type": "VEC2"
    },
    {
      "bufferView": 0,
      "byteOffset": 12288,
      "componentType": 5125,
      "count": 384,
      "type": "SCALAR"
    },
    {
      "bufferView": 2,
      "byteOffset": 20688,
      "componentType": 5126,
      "count": 64,
      "max": [
        0.9238799810409546,
        0.9238799810409546,
        0.3499999940395355
      ],
      "min": [
        -0.9238799810409546,
        -0.9238799810409546,
        -0.800000011920929
      ],
      "type": "VEC3"
    },
    {
      "bufferView": 2,
      "byteOffset": 21456,
      "componentType": 5126,
      "count": 64,
      "max": [
        0.922566831111908,
        0.922566831111908,
        0.6529226303100586
      ],
      "min": [
        -0.922566831111908,
        -0.922566831111908,
        -1.0
      ],
      "type": "VEC3"
    },
    {
      "bufferView": 3,
      "byteOffset": 2240,
      "componentType": 5126,
      "count": 64,
      "max": [
        0.7405428886413574,
        0.9906705021858215,
        0.9985758066177368,
        1.0
      ],
      "min": [
        -0.8472627997398376,
        -1.0,
        -0.9827601313591003,
        -1.0
      ],
      "type": "VEC4"
    },
    {
      "bufferView": 1,
      "byteOffset": 13792,
      "componentType": 5126,
      "count": 64,
      "max": [
        1.0,
        1.0
      ],
      "min": [
        0.0,
        0.0
      ],
      "type": "VEC2"
    },
    {
      "bufferView": 1,
      "byteOffset": 14304,
      "componentType": 5126,
      "count": 64,
      "max": [
        1.0,
        1.0
      ],
      "min": [
        0.0,
        0.0
      ],
      "type": "VEC2"
    },
    {
      "bufferView": 0,
      "byteOffset": 13824,
      "componentType": 5125,
      "count": 192,
      "type": "SCALAR"
    },
    {
      "bufferView": 2,
      "byteOffset": 22224,
      "componentType": 5126,
      "count": 64,
      "max": [
        0.9238799810409546,
        0.9238799810409546,
        0.3499999940395355
      ],
      "min": [
        -0.9238799810409546,
        -0.9238799810409546,
        -0.800000011920929
      ],
      "type": "VEC3"
    },
    {
      "bufferView": 2,
      "byteOffset": 22992,
      "componentType": 5126,
      "count": 64,
      "max": [
        0.922566831111908,
        0.922566831111908,
        0.6529226303100586
      ],
      "min": [
        -0.922566831111908,
        -0.922566831111908,
        -1.0
      ],
      "type": "VEC3"
    },
    {
      "bufferView": 3,
      "byteOffset": 3264,
      "componentType": 5126,
      "count": 64,
      "max": [
        0.7405428886413574,
        0.9906705021858215,
        0.9985758066177368,
        1.0
      ],
      "min": [
        -0.8472627997398376,
        -1.0,
        -0.9827601313591003,
        -1.0
      ],
      "type": "VEC4"
    },
    {
      "bufferView": 1,
      "byteOffset": 14816,
      "componentType": 5126,
      "count": 64,
      "max": [
        1.0,
        1.0
      ],
      "min": [
        0.0,
        0.0
      ],
      "type": "VEC2"
    },
    {
      "bufferView": 1,
      "byteOffset": 15328,
      "componentType": 5126,
      "count": 64,
      "max": [
        1.0,
        1.0
      ],
      "min": [
        0.0,
        0.0
      ],
      "type": "VEC2"
    },
    {
      "bufferView": 0,
      "byteOffset": 14592,
      "componentType": 5125,
      "count": 192,
      "type": "SCALAR"
    },
    {
      "bufferView": 2,
      "byteOffset": 23760,
      "componentType": 5126,
      "count": 288,
      "max": [
        1.0,
        1.0,
        0.3499999940395355
      ],
      "min": [
        -1.0,
        -1.0,
        -0.800000011920929
      ],
      "type": "VEC3"
    },
    {
      "bufferView": 2,
      "byteOffset": 27216,
      "componentType": 5126,
      "count": 288,
      "max": [
        0.6571212410926819,
        0.6571212410926819,
        1.0
      ],
      "min": [
        -0.6571212410926819,
        -0.6571212410926819,
        -0.779395580291748
      ],
      "type": "VEC3"
    },
    {
      "bufferView": 3,
      "byteOffset": 4288,
      "componentType": 5126,
      "count": 288,
      "max": [
        0.9998354911804199,
        0.9994083046913147,
        0.6602778434753418,
        1.0
      ],
      "min": [
        -0.9179072380065918,
        -0.9994028806686401,
        -0.6258325576782227,
        1.0
      ],
      "type": "VEC4"
    },
    {
      "bufferView": 1,
      "byteOffset": 15840,
      "componentType": 5126,
      "count": 288,
      "max": [
        1.0,
        1.0
      ],
      "min": [
        0.0,
        0.0
      ],
      "type": "VEC2"
    },
    {
      "bufferView": 1,
      "byteOffset": 18144,
      "componentType": 5126,
      "count": 288,
      "max": [
        1.0,
        1.0
      ],
      "min": [
        0.0,
        0.0
      ],
      "type": "VEC2"
    },
    {
      "bufferView": 0,
      "byteOffset": 15360,
      "componentType": 5125,
      "count": 384,
      "type": "SCALAR"
    },
    {
      "bufferView": 2,
      "byteOffset": 30672,
      "componentType": 5126,
      "count": 288,
      "max": [
        1.0,
        1.0,
        0.3499999940395355
      ],
      "min": [
        -1.0,
        -1.0,
        -0.800000011920929
      ],
      "type": "VEC3"
    },
    {
      "bufferView": 2,
      "byteOffset": 34128,
      "componentType": 5126,
      "count": 288,
      "max": [
        0.6571212410926819,
        0.6571212410926819,
        1.0
      ],
      "min": [
        -0.6571212410926819,
        -0.6571212410926819,
        -0.779395580291748
      ],
      "type": "VEC3"
    },
    {
      "bufferView": 3,
      "byteOffset": 8896,
      "componentType": 5126,
      "count": 288,
      "max": [
        0.9998354911804199,
        0.9994083046913147,
        0.6602778434753418,
        1.0
      ],
      "min": [
        -0.9179072380065918,
        -0.9994028806686401,
        -0.6258325576782227,
        1.0
      ],
      "type": "VEC4"
    },
    {
      "bufferView": 1,
      "byteOffset": 20448,
      "componentType": 5126,
      "count": 288,
      "max": [
        1.0,
        1.0
      ],
      "min": [
        0.0,
        0.0
      ],
      "type": "VEC2"
    },
    {
      "bufferView": 1,
      "byteOffset": 22752,
      "componentType": 5126,
      "count": 288,
      "max": [
        1.0,
        1.0
      ],
      "min": [
        0.0,
        0.0
      ],
      "type": "VEC2"
    },
    {
      "bufferView": 0,
      "byteOffset": 16896,
      "componentType": 5125,
      "count": 384,
      "type": "SCALAR"
    }
  ],
  "asset": {
    "extras": {
      "author": "Stephanus Tavilrond (https://sketchfab.com/waysofdarkness)",
      "license": "CC-BY-4.0 (http://creativecommons.org/licenses/by/4.0/)",
      "source": "https://sketchfab.com/3d-models/queens-crown-45d96f2f0e124ae8b06293add20991de",
      "title": "Queen's Crown"
    },
    "generator": "Sketchfab-12.65.0",
    "version": "2.0"
  },
  "bufferViews": [
    {
      "buffer": 0,
      "byteLength": 18432,
      "name": "floatBufferViews",
      "target": 34963
    },
    {
      "buffer": 0,
      "byteLength": 25056,
      "byteOffset": 18432,
      "byteStride": 8,
      "name": "floatBufferViews",
      "target": 34962
    },
    {
      "buffer": 0,
      "byteLength": 37584,
      "byteOffset": 43488,
      "byteStride": 12,
      "name": "floatBufferViews",
      "target": 34962
    },
    {
      "buffer": 0,
      "byteLength": 13504,
      "byteOffset": 81072,
      "byteStride": 16,
      "name": "floatBufferViews",
      "target": 34962
    }
  ],
  "buffers": [
    {
      "byteLength": 94576,
      "uri": "scene.bin"
    }
  ],
  "images": [
    {
      "uri": "textures/Diamond_3_baseColor.png"
    },
    {
      "uri": "textures/Diamond_3_normal.png"
    },
    {
      "uri": "textures/Diamond_2_baseColor.png"
    },
    {
      "uri": "textures/Diamond_1_baseColor.png"
    }
  ],
  "materials": [
    {
      "doubleSided": true,
      "name": "Diamond_3",
      "normalTexture": {
        "index": 1
      },
      "pbrMetallicRoughness": {
        "baseColorTexture": {
          "index": 0
        },
        "metallicFactor": 0.0,
        "roughnessFactor": 0.0
      }
    },
    {
      "doubleSided": true,
      "name": "Diamond_2",
      "normalTexture": {
        "index": 1
      },
      "pbrMetallicRoughness": {
        "baseColorTexture": {
          "index": 2
        },
        "metallicFactor": 0.0,
        "roughnessFactor": 0.0
      }
    },
    {
      "doubleSided": true,
      "name": "Diamond_1",
      "normalTexture": {
        "index": 1
      },
      "pbrMetallicRoughness": {
        "baseColorTexture": {
          "index": 3
        },
        "metallicFactor": 0.0,
        "roughnessFactor": 0.0
      }
    },
    {
      "doubleSided": true,
      "name": "Gould",
      "pbrMetallicRoughness": {
        "baseColorFactor": [
          1.0,
          0.7409556523337887,
          0.0,
          1.0
        ],
        "roughnessFactor": 0.0
      }
    }
  ],
  "meshes": [
    {
      "name": "Cylinder_0",
      "primitives": [
        {
          "attributes": {
            "NORMAL": 1,
            "POSITION": 0,
            "TEXCOORD_0": 2,
            "TEXCOORD_1": 3
          },
          "indices": 4,
          "material": 3,
          "mode": 4
        }
      ]
    },
    {
      "name": "Diamond_0",
      "primitives": [
        {
          "attributes": {
            "NORMAL": 6,
            "POSITION": 5,
            "TANGENT": 7,
            "TEXCOORD_0": 8,
            "TEXCOORD_1": 9
          },
          "indices": 10,
          "material": 2,
          "mode": 4
        }
      ]
    },
    {
      "name": "Gem_0",
      "primitives": [
        {
          "attributes": {
            "NORMAL": 12,
            "POSITION": 11,
            "TANGENT": 13,
            "TEXCOORD_0": 14,
            "TEXCOORD_1": 15
          },
          "indices": 16,
          "material": 1,
          "mode": 4
        }
      ]
    },
    {
      "name": "Gem.001_0",
      "primitives": [
        {
          "attributes": {
            "NORMAL": 18,
            "POSITION": 17,
            "TANGENT": 19,
            "TEXCOORD_0": 20,
            "TEXCOORD_1": 21
          },
          "indices": 22,
          "material": 1,
          "mode": 4
        }
      ]
    },
    {
      "name": "Diamond.001_0",
      "primitives": [
        {
          "attributes": {
            "NORMAL": 24,
            "POSITION": 23,
            "TANGENT": 25,
            "TEXCOORD_0": 26,
            "TEXCOORD_1": 27
          },
          "indices": 28,
          "material": 0,
          "mode": 4
        }
      ]
    },
    {
      "name": "Diamond.002_0",
      "primitives": [
        {
          "attributes": {
            "NORMAL": 30,
            "POSITION": 29,
            "TANGENT": 31,
            "TEXCOORD_0": 32,
            "TEXCOORD_1": 33
          },
          "indices": 34,
          "material": 0,
          "mode": 4
        }
      ]
    }
  ],
  "nodes": [
    {
      "children": [
        1
      ],
      "matrix": [
        1.0,
        0.0,
        0.0,
        0.0,
        0.0,
        2.220446049250313e-16,
        -1.0,
        0.0,
        0.0,
        1.0,
        2.220446049250313e-16,
        0.0,
        0.0,
        0.0,
        0.0,
        1.0
      ],
      "name": "Sketchfab_model"
    },
    {
      "children": [
        2,
        4,
        6,
        8,
        10,
        12,
        14
      ],
      "name": "Root"
    },
    {
      "children": [
        3
      ],
      "matrix": [
        -0.29086000000000006,
        0.9551700000000001,
        -0.05519000000000001,
        0.0,
        -0.7711,
        -0.19988000000000003,
        0.6045200000000001,
        0.0,
        0.5663900000000001,
        0.21839000000000003,
        0.7946700000000001,
        0.0,
        4.076250000000001,
        1.00545,
        5.903860000000001,
        1.0
      ],
      "name": "Lamp"
    },
    {
      "name": "Lamp"
    },
    {
      "children": [
        5
      ],
      "matrix": [
        1.0,
        0.0,
        0.0,
        0.0,
        0.0,
        1.0,
        0.0,
        0.0,
        0.0,
        0.0,
        0.2766,
        0.0,
        0.0,
        0.0,
        0.0,
        1.0
      ],
      "name": "Cylinder"
    },
    {
      "mesh": 0,
      "name": "Cylinder_0"
    },
    {
      "children": [
        7
      ],
      "matrix": [
        -0.0,
        0.0,
        0.14758000000000002,
        0.0,
        0.0,
        0.10542000000000001,
        -0.0,
        0.0,
        0.16259000000000004,
        -0.0,
        0.0,
        0.0,
        1.02508,
        0.017700000000000004,
        -0.008210000000000002,
        1.0
      ],
      "name": "Diamond"
    },
    {
      "mesh": 1,
      "name": "Diamond_0"
    },
    {
      "children": [
        9
      ],
      "matrix": [
        0.0,
        0.0,
        -0.09601000000000003,
        0.0,
        -0.04258000000000001,
        0.08605000000000002,
        -0.0,
        0.0,
        0.08605000000000002,
        0.04258000000000001,
        0.0,
        0.0,
        0.98191,
        0.3079800000000001,
        -0.015540000000000003,
        1.0
      ],
      "name": "Gem"
    },
    {
      "mesh": 2,
      "name": "Gem_0"
    },
    {
      "children": [
        11
      ],
      "matrix": [
        0.0,
        0.0,
        -0.09601000000000003,
        0.0,
        0.04258000000000001,
        0.08605000000000002,
        0.0,
        0.0,
        0.08605000000000002,
        -0.04258000000000001,
        0.0,
        0.0,
        0.98191,
        -0.3079800000000001,
        -0.015540000000000003,
        1.0
      ],
      "name": "Gem.001"
    },
    {
      "mesh": 3,
      "name": "Gem.001_0"
    },
    {
      "children": [
        13
      ],
      "matrix": [
        0.0,
        0.0,
        -0.10157000000000001,
        0.0,
        0.05279000000000001,
        0.08678000000000002,
        0.0,
        0.0,
        0.08678000000000002,
        -0.05279000000000001,
        0.0,
        0.0,
        0.8840100000000001,
        -0.56196,
        -0.011310000000000002,
        1.0
      ],
      "name": "Diamond.001"
    },
    {
      "mesh": 4,
      "name": "Diamond.001_0"
    },
    {
      "children": [
        15
      ],
      "matrix": [
        0.0,
        0.0,
        -0.10157000000000001,
        0.0,
        -0.05279000000000001,
        0.08678000000000002,
        -0.0,
        0.0,
        0.08678000000000002,
        0.05279000000000001,
        0.0,
        0.0,
        0.8840100000000001,
        0.56196,
        -0.011310000000000002,
        1.0
      ],
      "name": "Diamond.002"
    },
    {
      "mesh": 5,
      "name": "Diamond.002_0"
    }
  ],
  "samplers": [
    {
      "magFilter": 9729,
      "minFilter": 9987,
      "wrapS": 10497,
      "wrapT": 10497
    }
  ],
  "scene": 0,
  "scenes": [
    {
      "name": "Sketchfab_Scene",
      "nodes": [
        0
      ]
    }
  ],
  "textures": [
    {
      "sampler": 0,
      "source": 0
    },
    {
      "sampler": 0,
      "source": 1
    },
    {
      "sampler": 0,
      "source": 2
    },
    {
      "sampler": 0,
      "source": 3
    }
  ]
}
