{
  "accessors": [
    {
      "bufferView": 2,
      "componentType": 5126,
      "count": 4179,
      "max": [
        13.950872421264648,
        16.49993896484375,
        16.445022583007813
      ],
      "min": [
        -14.138755798339844,
        -16.434783935546875,
        -18.100950241088867
      ],
      "type": "VEC3"
    },
    {
      "bufferView": 2,
      "byteOffset": 50148,
      "componentType": 5126,
      "count": 4179,
      "max": [
        0.9998652338981628,
        0.995829164981842,
        0.9985670447349548
      ],
      "min": [
        -0.998054027557373,
        -0.9939329624176025,
        -0.9966389536857605
      ],
      "type": "VEC3"
    },
    {
      "bufferView": 1,
      "componentType": 5126,
      "count": 4179,
      "max": [
        0.9979999661445618,
        0.9980000257492065
      ],
      "min": [
        0.0020000000949949026,
        0.0059212446212768555
      ],
      "type": "VEC2"
    },
    {
      "bufferView": 0,
      "componentType": 5125,
      "count": 4179,
      "type": "SCALAR"
    }
  ],
  "asset": {
    "extras": {
      "author": "danielgobr481 (https://sketchfab.com/danielgobr481)",
      "license": "CC-BY-4.0 (http://creativecommons.org/licenses/by/4.0/)",
      "source": "https://sketchfab.com/3d-models/helmet-e76d666c00be4cef9e25738e3603fa44",
      "title": "Helmet"
    },
    "generator": "Sketchfab-13.70.0",
    "version": "2.0"
  },
  "bufferViews": [
    {
      "buffer": 0,
      "byteLength": 16716,
      "name": "floatBufferViews",
      "target": 34963
    },
    {
      "buffer": 0,
      "byteLength": 33432,
      "byteOffset": 16716,
      "byteStride": 8,
      "name": "floatBufferViews",
      "target": 34962
    },
    {
      "buffer": 0,
      "byteLength": 100296,
      "byteOffset": 50148,
      "byteStride": 12,
      "name": "floatBufferViews",
      "target": 34962
    }
  ],
  "buffers": [
    {
      "byteLength": 150444,
      "uri": "scene.bin"
    }
  ],
  "images": [
    {
      "uri": "textures/Material.001_baseColor.jpeg"
    },
    {
      "uri": "textures/Material.001_metallicRoughness.png"
    }
  ],
  "materials": [
    {
      "doubleSided": true,
      "name": "Material.001",
      "pbrMetallicRoughness": {
        "baseColorTexture": {
          "index": 0
        },
        "metallicRoughnessTexture": {
          "index": 1
        }
      }
    }
  ],
  "meshes": [
    {
      "name": "Helmet_Material.001_0",
      "primitives": [
        {
          "attributes": {
            "NORMAL": 1,
            "POSITION": 0,
            "TEXCOORD_0": 2
          },
          "indices": 3,
          "material": 0,
          "mode": 4
        }
      ]
    }
  ],
  "nodes": [
    {
      "children": [
        1
      ],
      "matrix": [
        1.0,
        0.0,
        0.0,
        0.0,
        0.0,
        2.220446049250313e-16,
        -1.0,
        0.0,
        0.0,
        1.0,
        2.220446049250313e-16,
        0.0,
        0.0,
        0.0,
        0.0,
        1.0
      ],
      "name": "Sketchfab_model"
    },
    {
      "children": [
        2
      ],
      "matrix": [
        0.009999999776482582,
        0.0,
        0.0,
        0.0,
        0.0,
        0.0,
        0.009999999776482582,
        0.0,
        0.0,
        -0.009999999776482582,
        0.0,
        0.0,
        0.0,
        0.0,
        0.0,
        1.0
      ],
      "name": "0e05bb6099774cbb9529a737a02274c5.fbx"
    },
    {
      "children": [
        3
      ],
      "name": "RootNode"
    },
    {
      "children": [
        4
      ],
      "matrix": [
        100.0,
        7.324721381848504e-15,
        -2.7846548939397503e-15,
        0.0,
        -7.739556582494075e-15,
        86.7568850468477,
        -49.73170916998585,
        0.0,
        -1.2268292898459384e-15,
        49.73170916998585,
        86.7568850468477,
        0.0,
        -9.241079330444336,
        7693.57763671875,
        -16.211854934692383,
        1.0
      ],
      "name": "Helmet"
    },
    {
      "mesh": 0,
      "name": "Helmet_Material.001_0"
    }
  ],
  "samplers": [
    {
      "magFilter": 9729,
      "minFilter": 9987,
      "wrapS": 10497,
      "wrapT": 10497
    }
  ],
  "scene": 0,
  "scenes": [
    {
      "name": "Sketchfab_Scene",
      "nodes": [
        0
      ]
    }
  ],
  "textures": [
    {
      "sampler": 0,
      "source": 0
    },
    {
      "sampler": 0,
      "source": 1
    }
  ]
}
