{
  "accessors": [
    {
      "bufferView": 3,
      "componentType": 5126,
      "count": 52,
      "max": [
        20.644086837768555,
        106.73689270019531,
        -20.646671295166016
      ],
      "min": [
        8.519767761230469,
        96.96723937988281,
        -32.770870208740234
      ],
      "type": "VEC3"
    },
    {
      "bufferView": 3,
      "byteOffset": 624,
      "componentType": 5126,
      "count": 52,
      "max": [
        0.9694030284881592,
        -0.15099015831947327,
        0.9694038033485413
      ],
      "min": [
        -0.9694030284881592,
        -0.4699884057044983,
        -0.9694038033485413
      ],
      "type": "VEC3"
    },
    {
      "bufferView": 2,
      "componentType": 5126,
      "count": 52,
      "max": [
        0.7421882748603821,
        0.866417646408081
      ],
      "min": [
        0.5105030536651611,
        0.756915807723999
      ],
      "type": "VEC2"
    },
    {
      "bufferView": 1,
      "componentType": 5125,
      "count": 216,
      "type": "SCALAR"
    },
    {
      "bufferView": 3,
      "byteOffset": 1248,
      "componentType": 5126,
      "count": 52,
      "max": [
        -8.457183837890625,
        106.73689270019531,
        -20.646671295166016
      ],
      "min": [
        -20.58150291442871,
        96.96723937988281,
        -32.770870208740234
      ],
      "type": "VEC3"
    },
    {
      "bufferView": 3,
      "byteOffset": 1872,
      "componentType": 5126,
      "count": 52,
      "max": [
        0.9694030284881592,
        -0.15099015831947327,
        0.9694038033485413
      ],
      "min": [
        -0.9694030284881592,
        -0.4699884057044983,
        -0.9694038033485413
      ],
      "type": "VEC3"
    },
    {
      "bufferView": 2,
      "byteOffset": 416,
      "componentType": 5126,
      "count": 52,
      "max": [
        0.7421882748603821,
        0.866417646408081
      ],
      "min": [
        0.5105030536651611,
        0.756915807723999
      ],
      "type": "VEC2"
    },
    {
      "bufferView": 1,
      "byteOffset": 864,
      "componentType": 5125,
      "count": 216,
      "type": "SCALAR"
    },
    {
      "bufferView": 3,
      "byteOffset": 2496,
      "componentType": 5126,
      "count": 7026,
      "max": [
        57.641273498535156,
        29.902114868164063,
        42.69621658325195
      ],
      "min": [
        15.012226104736328,
        -29.181427001953125,
        -6.023530960083008
      ],
      "type": "VEC3"
    },
    {
      "bufferView": 3,
      "byteOffset": 86808,
      "componentType": 5126,
      "count": 7026,
      "max": [
        0.9999882578849792,
        1.0,
        1.0
      ],
      "min": [
        -0.9999882578849792,
        -1.0,
        -1.0
      ],
      "type": "VEC3"
    },
    {
      "bufferView": 2,
      "byteOffset": 832,
      "componentType": 5126,
      "count": 7026,
      "max": [
        0.9858366250991821,
        0.995205283164978
      ],
      "min": [
        0.0012953918194398284,
        0.009493231773376465
      ],
      "type": "VEC2"
    },
    {
      "bufferView": 1,
      "byteOffset": 1728,
      "componentType": 5125,
      "count": 34578,
      "type": "SCALAR"
    },
    {
      "bufferView": 5,
      "componentType": 5126,
      "count": 5,
      "max": [
        1.0,
        0.0,
        0.0,
        0.0,
        0.0,
        1.0,
        0.0,
        0.0,
        1.5543122344752192e-15,
        4.507792878257139e-16,
        1.0,
        0.0,
        14.532657623291016,
        0.0,
        26.740873336791992,
        1.0
      ],
      "min": [
        1.0,
        -7.006517621155333e-31,
        -1.5543122344752192e-15,
        0.0,
        0.0,
        1.0,
        -4.507792878257139e-16,
        0.0,
        0.0,
        0.0,
        1.0,
        0.0,
        -14.568613052368164,
        -104.65412139892578,
        0.0,
        1.0
      ],
      "type": "MAT4"
    },
    {
      "bufferView": 0,
      "componentType": 5123,
      "count": 52,
      "type": "VEC4"
    },
    {
      "bufferView": 4,
      "componentType": 5126,
      "count": 52,
      "max": [
        1.0,
        0.0,
        0.0,
        0.0
      ],
      "min": [
        1.0,
        0.0,
        0.0,
        0.0
      ],
      "type": "VEC4"
    },
    {
      "bufferView": 0,
      "byteOffset": 416,
      "componentType": 5123,
      "count": 52,
      "type": "VEC4"
    },
    {
      "bufferView": 4,
      "byteOffset": 832,
      "componentType": 5126,
      "count": 52,
      "max": [
        1.0,
        0.0,
        0.0,
        0.0
      ],
      "min": [
        1.0,
        0.0,
        0.0,
        0.0
      ],
      "type": "VEC4"
    }
  ],
  "asset": {
    "extras": {
      "author": "Vadim Fedenko (https://sketchfab.com/vadimfedenko)",
      "license": "CC-BY-4.0 (http://creativecommons.org/licenses/by/4.0/)",
      "source": "https://sketchfab.com/3d-models/jetpack-04e0167cd6ae4c7f8ccc8de56f1f3039",
      "title": "Jetpack"
    },
    "generator": "Sketchfab-12.68.0",
    "version": "2.0"
  },
  "bufferViews": [
    {
      "buffer": 0,
      "byteLength": 832,
      "byteStride": 8,
      "name": "shortBufferViews",
      "target": 34962
    },
    {
      "buffer": 0,
      "byteLength": 140040,
      "byteOffset": 832,
      "name": "floatBufferViews",
      "target": 34963
    },
    {
      "buffer": 0,
      "byteLength": 57040,
      "byteOffset": 140872,
      "byteStride": 8,
      "name": "floatBufferViews",
      "target": 34962
    },
    {
      "buffer": 0,
      "byteLength": 171120,
      "byteOffset": 197912,
      "byteStride": 12,
      "name": "floatBufferViews",
      "target": 34962
    },
    {
      "buffer": 0,
      "byteLength": 1664,
      "byteOffset": 369032,
      "byteStride": 16,
      "name": "floatBufferViews",
      "target": 34962
    },
    {
      "buffer": 0,
      "byteLength": 320,
      "byteOffset": 370696,
      "name": "floatBufferViews"
    }
  ],
  "buffers": [
    {
      "byteLength": 371016,
      "uri": "scene.bin"
    }
  ],
  "images": [
    {
      "uri": "textures/material_baseColor.png"
    }
  ],
  "materials": [
    {
      "doubleSided": true,
      "name": "material",
      "pbrMetallicRoughness": {
        "baseColorTexture": {
          "index": 0
        },
        "metallicFactor": 0.46361672260624726,
        "roughnessFactor": 0.6097016466420868
      }
    }
  ],
  "meshes": [
    {
      "name": "left_part_Mat_0",
      "primitives": [
        {
          "attributes": {
            "JOINTS_0": 13,
            "NORMAL": 1,
            "POSITION": 0,
            "TEXCOORD_0": 2,
            "WEIGHTS_0": 14
          },
          "indices": 3,
          "material": 0,
          "mode": 4
        }
      ]
    },
    {
      "name": "right_part_Mat_0",
      "primitives": [
        {
          "attributes": {
            "JOINTS_0": 15,
            "NORMAL": 5,
            "POSITION": 4,
            "TEXCOORD_0": 6,
            "WEIGHTS_0": 16
          },
          "indices": 7,
          "material": 0,
          "mode": 4
        }
      ]
    },
    {
      "name": "jetpack_Mat_0",
      "primitives": [
        {
          "attributes": {
            "NORMAL": 9,
            "POSITION": 8,
            "TEXCOORD_0": 10
          },
          "indices": 11,
          "material": 0,
          "mode": 4
        }
      ]
    }
  ],
  "nodes": [
    {
      "children": [
        1
      ],
      "matrix": [
        1.0,
        0.0,
        0.0,
        0.0,
        0.0,
        -6.123232939436859e-17,
        -1.0,
        0.0,
        0.0,
        1.0,
        -6.123232939436859e-17,
        0.0,
        0.0,
        -0.0003599891788326204,
        3.730341369375027e-14,
        1.0
      ],
      "name": "Sketchfab_model"
    },
    {
      "children": [
        2
      ],
      "matrix": [
        1.0,
        0.0,
        0.0,
        0.0,
        0.0,
        0.0,
        1.0,
        0.0,
        0.0,
        -1.0,
        0.0,
        0.0,
        0.0,
        0.0,
        0.0,
        1.0
      ],
      "name": "f565f08d3efb46c98638a9755abdd6ca.fbx"
    },
    {
      "children": [
        3
      ],
      "name": "RootNode"
    },
    {
      "children": [
        4,
        6,
        8,
        5,
        7,
        13
      ],
      "name": "Object_3"
    },
    {
      "children": [
        9,
        11
      ],
      "name": "_rootJoint"
    },
    {
      "matrix": [
        0.9999999999999999,
        0.0,
        -1.9721522630525295e-31,
        0.0,
        1.944692274331607e-62,
        1.0,
        9.860761315262648e-32,
        0.0,
        1.9721522630525295e-31,
        -9.860761315262646e-32,
        0.9999999999999999,
        0.0,
        14.58192691004501,
        101.85206648756477,
        -26.70877036657341,
        1.0
      ],
      "name": "Object_5"
    },
    {
      "mesh": 0,
      "name": "Object_6",
      "skin": 0
    },
    {
      "matrix": [
        0.9999999999999998,
        0.0,
        -1.9721522630525295e-31,
        0.0,
        -8.626176584266311e-47,
        1.0,
        -4.373991169887954e-16,
        0.0,
        1.9721522630525295e-31,
        4.373991169887953e-16,
        0.9999999999999998,
        0.0,
        -14.519343553991929,
        101.85206648756477,
        -26.70877036657341,
        1.0
      ],
      "name": "Object_7"
    },
    {
      "mesh": 1,
      "name": "Object_8",
      "skin": 0
    },
    {
      "children": [
        10
      ],
      "name": "left_joint_00",
      "rotation": [
        2.2538964391285695e-16,
        -7.771561172376096e-16,
        1.7516294052888333e-31,
        1.0
      ],
      "translation": [
        14.568613052368164,
        104.65412139892578,
        -26.740873336791992
      ]
    },
    {
      "name": "Joint_01",
      "rotation": [
        4.0389678347315804e-28,
        9.860761315262648e-32,
        -0.0,
        1.0
      ],
      "translation": [
        3.9310066313191783e-10,
        -17.276796340942383,
        1.4210854715202004e-14
      ]
    },
    {
      "children": [
        12
      ],
      "name": "right_joint_02",
      "rotation": [
        2.2538964391285695e-16,
        -7.771561172376096e-16,
        1.7516294052888333e-31,
        1.0
      ],
      "translation": [
        -14.532657623291016,
        104.65412139892578,
        -26.740873336791992
      ]
    },
    {
      "name": "Joint_2_03",
      "rotation": [
        4.0389678347315804e-28,
        9.860761315262648e-32,
        -0.0,
        1.0
      ],
      "translation": [
        3.9310066313191783e-10,
        -17.276796340942383,
        7.105427357601002e-15
      ]
    },
    {
      "children": [
        14
      ],
      "matrix": [
        1.0,
        0.0,
        0.0,
        0.0,
        0.0,
        1.0,
        0.0,
        0.0,
        0.0,
        0.0,
        1.0,
        0.0,
        -36.32674789428711,
        130.77517700195313,
        -27.77680206298828,
        1.0
      ],
      "name": "jetpack"
    },
    {
      "mesh": 2,
      "name": "jetpack_Mat_0"
    }
  ],
  "samplers": [
    {
      "magFilter": 9729,
      "minFilter": 9987,
      "wrapS": 10497,
      "wrapT": 10497
    }
  ],
  "scene": 0,
  "scenes": [
    {
      "name": "Sketchfab_Scene",
      "nodes": [
        0
      ]
    }
  ],
  "skins": [
    {
      "inverseBindMatrices": 12,
      "joints": [
        4,
        9,
        10,
        11,
        12
      ],
      "skeleton": 4
    }
  ],
  "textures": [
    {
      "sampler": 0,
      "source": 0
    }
  ]
}
